{
    "asset" : {
        "generator" : "Khronos glTF Blender I/O v1.8.19",
        "version" : "2.0"
    },
    "scene" : 0,
    "scenes" : [
        {
            "name" : "Scene",
            "nodes" : [
                8
            ]
        }
    ],
    "nodes" : [
        {
            "mesh" : 0,
            "name" : "CTRL_Hole",
            "translation" : [
                0,
                0,
                0.15000000596046448
            ]
        },
        {
            "mesh" : 1,
            "name" : "Window.L",
            "translation" : [
                -0.5490000247955322,
                0.05199999734759331,
                0.10000000149011612
            ]
        },
        {
            "mesh" : 2,
            "name" : "Window.L.Glass",
            "translation" : [
                -0.5490000247955322,
                0.05199999734759331,
                0.10000000149011612
            ]
        },
        {
            "mesh" : 3,
            "name" : "Handle",
            "translation" : [
                -0.5230000019073486,
                0.4480000138282776,
                0
            ]
        },
        {
            "children" : [
                3
            ],
            "mesh" : 4,
            "name" : "Window.R",
            "translation" : [
                0.5490000247955322,
                0.05199999734759331,
                0.10000000149011612
            ]
        },
        {
            "mesh" : 5,
            "name" : "Window.R.Glass",
            "translation" : [
                0.5490000247955322,
                0.05199999734759331,
                0.10000000149011612
            ]
        },
        {
            "mesh" : 6,
            "name" : "Windows_Sill",
            "translation" : [
                0,
                0,
                0.10000000149011612
            ]
        },
        {
            "children" : [
                1,
                2,
                4,
                5,
                6
            ],
            "mesh" : 7,
            "name" : "WindowFrame"
        },
        {
            "children" : [
                0,
                7
            ],
            "name" : "Window_Group",
            "translation" : [
                -1,
                0,
                0
            ]
        }
    ],
    "meshes" : [
        {
            "name" : "CTRL_Hole",
            "primitives" : [
                {
                    "attributes" : {
                        "POSITION" : 0,
                        "NORMAL" : 1
                    },
                    "indices" : 2
                }
            ]
        },
        {
            "name" : "Window.L.004",
            "primitives" : [
                {
                    "attributes" : {
                        "POSITION" : 3,
                        "NORMAL" : 4
                    },
                    "indices" : 5
                }
            ]
        },
        {
            "name" : "Window.L.005",
            "primitives" : [
                {
                    "attributes" : {
                        "POSITION" : 6,
                        "NORMAL" : 7
                    },
                    "indices" : 8
                }
            ]
        },
        {
            "name" : "Mesh",
            "primitives" : [
                {
                    "attributes" : {
                        "POSITION" : 9,
                        "NORMAL" : 10
                    },
                    "indices" : 11
                }
            ]
        },
        {
            "name" : "Window.R.004",
            "primitives" : [
                {
                    "attributes" : {
                        "POSITION" : 12,
                        "NORMAL" : 13
                    },
                    "indices" : 14
                }
            ]
        },
        {
            "name" : "Window.R.005",
            "primitives" : [
                {
                    "attributes" : {
                        "POSITION" : 15,
                        "NORMAL" : 16
                    },
                    "indices" : 17
                }
            ]
        },
        {
            "name" : "Windows_Sill.003",
            "primitives" : [
                {
                    "attributes" : {
                        "POSITION" : 18,
                        "NORMAL" : 19
                    },
                    "indices" : 20
                }
            ]
        },
        {
            "name" : "WindowFrane.003",
            "primitives" : [
                {
                    "attributes" : {
                        "POSITION" : 21,
                        "NORMAL" : 22
                    },
                    "indices" : 23
                }
            ]
        }
    ],
    "accessors" : [
        {
            "bufferView" : 0,
            "componentType" : 5126,
            "count" : 24,
            "max" : [
                0.5990000367164612,
                0.9980000257492065,
                0
            ],
            "min" : [
                -0.5990000367164612,
                0,
                -0.30000001192092896
            ],
            "type" : "VEC3"
        },
        {
            "bufferView" : 1,
            "componentType" : 5126,
            "count" : 24,
            "type" : "VEC3"
        },
        {
            "bufferView" : 2,
            "componentType" : 5123,
            "count" : 36,
            "type" : "SCALAR"
        },
        {
            "bufferView" : 3,
            "componentType" : 5126,
            "count" : 60,
            "max" : [
                0.5490000247955322,
                0.8960000276565552,
                0
            ],
            "min" : [
                0,
                0,
                -0.049000002443790436
            ],
            "type" : "VEC3"
        },
        {
            "bufferView" : 4,
            "componentType" : 5126,
            "count" : 60,
            "type" : "VEC3"
        },
        {
            "bufferView" : 5,
            "componentType" : 5123,
            "count" : 120,
            "type" : "SCALAR"
        },
        {
            "bufferView" : 6,
            "componentType" : 5126,
            "count" : 4,
            "max" : [
                0.49900001287460327,
                0.8460000157356262,
                -0.024500001221895218
            ],
            "min" : [
                0.05000000074505806,
                0.05000000074505806,
                -0.024500001221895218
            ],
            "type" : "VEC3"
        },
        {
            "bufferView" : 7,
            "componentType" : 5126,
            "count" : 4,
            "type" : "VEC3"
        },
        {
            "bufferView" : 8,
            "componentType" : 5123,
            "count" : 6,
            "type" : "SCALAR"
        },
        {
            "bufferView" : 9,
            "componentType" : 5126,
            "count" : 4029,
            "max" : [
                0.10481811314821243,
                0.06273152679204941,
                0.04857581481337547
            ],
            "min" : [
                -0.018327925354242325,
                -0.06253569573163986,
                -0.00028153517632745206
            ],
            "type" : "VEC3"
        },
        {
            "bufferView" : 10,
            "componentType" : 5126,
            "count" : 4029,
            "type" : "VEC3"
        },
        {
            "bufferView" : 11,
            "componentType" : 5123,
            "count" : 23712,
            "type" : "SCALAR"
        },
        {
            "bufferView" : 12,
            "componentType" : 5126,
            "count" : 62,
            "max" : [
                0,
                0.8960000276565552,
                0
            ],
            "min" : [
                -0.5480000376701355,
                0,
                -0.049000002443790436
            ],
            "type" : "VEC3"
        },
        {
            "bufferView" : 13,
            "componentType" : 5126,
            "count" : 62,
            "type" : "VEC3"
        },
        {
            "bufferView" : 14,
            "componentType" : 5123,
            "count" : 120,
            "type" : "SCALAR"
        },
        {
            "bufferView" : 15,
            "componentType" : 5126,
            "count" : 4,
            "max" : [
                -0.05000000074505806,
                0.8460000157356262,
                -0.024500001221895218
            ],
            "min" : [
                -0.49800002574920654,
                0.05000000074505806,
                -0.024500001221895218
            ],
            "type" : "VEC3"
        },
        {
            "bufferView" : 16,
            "componentType" : 5126,
            "count" : 4,
            "type" : "VEC3"
        },
        {
            "bufferView" : 17,
            "componentType" : 5123,
            "count" : 6,
            "type" : "SCALAR"
        },
        {
            "bufferView" : 18,
            "componentType" : 5126,
            "count" : 24,
            "max" : [
                0.6000000238418579,
                0,
                0
            ],
            "min" : [
                -0.6000000238418579,
                -0.009999999776482582,
                -0.2199999988079071
            ],
            "type" : "VEC3"
        },
        {
            "bufferView" : 19,
            "componentType" : 5126,
            "count" : 24,
            "type" : "VEC3"
        },
        {
            "bufferView" : 20,
            "componentType" : 5123,
            "count" : 36,
            "type" : "SCALAR"
        },
        {
            "bufferView" : 21,
            "componentType" : 5126,
            "count" : 156,
            "max" : [
                0.6100000143051147,
                1.0099999904632568,
                0.10199999809265137
            ],
            "min" : [
                -0.6100000143051147,
                -0.009999999776482582,
                0
            ],
            "type" : "VEC3"
        },
        {
            "bufferView" : 22,
            "componentType" : 5126,
            "count" : 156,
            "type" : "VEC3"
        },
        {
            "bufferView" : 23,
            "componentType" : 5123,
            "count" : 240,
            "type" : "SCALAR"
        }
    ],
    "bufferViews" : [
        {
            "buffer" : 0,
            "byteLength" : 288,
            "byteOffset" : 0
        },
        {
            "buffer" : 0,
            "byteLength" : 288,
            "byteOffset" : 288
        },
        {
            "buffer" : 0,
            "byteLength" : 72,
            "byteOffset" : 576
        },
        {
            "buffer" : 0,
            "byteLength" : 720,
            "byteOffset" : 648
        },
        {
            "buffer" : 0,
            "byteLength" : 720,
            "byteOffset" : 1368
        },
        {
            "buffer" : 0,
            "byteLength" : 240,
            "byteOffset" : 2088
        },
        {
            "buffer" : 0,
            "byteLength" : 48,
            "byteOffset" : 2328
        },
        {
            "buffer" : 0,
            "byteLength" : 48,
            "byteOffset" : 2376
        },
        {
            "buffer" : 0,
            "byteLength" : 12,
            "byteOffset" : 2424
        },
        {
            "buffer" : 0,
            "byteLength" : 48348,
            "byteOffset" : 2436
        },
        {
            "buffer" : 0,
            "byteLength" : 48348,
            "byteOffset" : 50784
        },
        {
            "buffer" : 0,
            "byteLength" : 47424,
            "byteOffset" : 99132
        },
        {
            "buffer" : 0,
            "byteLength" : 744,
            "byteOffset" : 146556
        },
        {
            "buffer" : 0,
            "byteLength" : 744,
            "byteOffset" : 147300
        },
        {
            "buffer" : 0,
            "byteLength" : 240,
            "byteOffset" : 148044
        },
        {
            "buffer" : 0,
            "byteLength" : 48,
            "byteOffset" : 148284
        },
        {
            "buffer" : 0,
            "byteLength" : 48,
            "byteOffset" : 148332
        },
        {
            "buffer" : 0,
            "byteLength" : 12,
            "byteOffset" : 148380
        },
        {
            "buffer" : 0,
            "byteLength" : 288,
            "byteOffset" : 148392
        },
        {
            "buffer" : 0,
            "byteLength" : 288,
            "byteOffset" : 148680
        },
        {
            "buffer" : 0,
            "byteLength" : 72,
            "byteOffset" : 148968
        },
        {
            "buffer" : 0,
            "byteLength" : 1872,
            "byteOffset" : 149040
        },
        {
            "buffer" : 0,
            "byteLength" : 1872,
            "byteOffset" : 150912
        },
        {
            "buffer" : 0,
            "byteLength" : 480,
            "byteOffset" : 152784
        }
    ],
    "buffers" : [
        {
            "byteLength" : 153264,
            "uri" : "data:application/octet-stream;base64,"
        }
    ]
}
