{
    "asset" : {
        "generator" : "Khronos glTF Blender I/O v1.8.19",
        "version" : "2.0"
    },
    "scene" : 0,
    "scenes" : [
        {
            "name" : "Scene",
            "nodes" : [
                0
            ]
        }
    ],
    "nodes" : [
        {
            "mesh" : 0,
            "name" : "Room",
            "translation" : [
                0.010683059692382812,
                0,
                0
            ]
        }
    ],
    "meshes" : [
        {
            "name" : "Room.003",
            "primitives" : [
                {
                    "attributes" : {
                        "POSITION" : 0,
                        "NORMAL" : 1,
                        "TEXCOORD_0" : 2
                    },
                    "indices" : 3
                }
            ]
        }
    ],
    "accessors" : [
        {
            "bufferView" : 0,
            "componentType" : 5126,
            "count" : 164,
            "max" : [
                4,
                4.400000095367432,
                0
            ],
            "min" : [
                0,
                0,
                -3
            ],
            "type" : "VEC3"
        },
        {
            "bufferView" : 1,
            "componentType" : 5126,
            "count" : 164,
            "type" : "VEC3"
        },
        {
            "bufferView" : 2,
            "componentType" : 5126,
            "count" : 164,
            "type" : "VEC2"
        },
        {
            "bufferView" : 3,
            "componentType" : 5123,
            "count" : 312,
            "type" : "SCALAR"
        }
    ],
    "bufferViews" : [
        {
            "buffer" : 0,
            "byteLength" : 1968,
            "byteOffset" : 0
        },
        {
            "buffer" : 0,
            "byteLength" : 1968,
            "byteOffset" : 1968
        },
        {
            "buffer" : 0,
            "byteLength" : 1312,
            "byteOffset" : 3936
        },
        {
            "buffer" : 0,
            "byteLength" : 624,
            "byteOffset" : 5248
        }
    ],
    "buffers" : [
        {
            "byteLength" : 5872,
            "uri" : "data:application/octet-stream;base64,"
        }
    ]
}
