{
    "asset" : {
        "generator" : "Khronos glTF Blender I/O v1.8.19",
        "version" : "2.0"
    },
    "scene" : 0,
    "scenes" : [
        {
            "name" : "Scene",
            "nodes" : [
                6
            ]
        }
    ],
    "nodes" : [
        {
            "mesh" : 0,
            "name" : "CTRL_Baseboard",
            "translation" : [
                0,
                -0.10000000149011612,
                0.17666666209697723
            ]
        },
        {
            "mesh" : 1,
            "name" : "CTRL_Hole.001",
            "translation" : [
                0,
                -0.0020000000949949026,
                0.11999999731779099
            ]
        },
        {
            "mesh" : 2,
            "name" : "Handle_Back",
            "translation" : [
                -0.7639999985694885,
                0,
                -0.004999999888241291
            ]
        },
        {
            "mesh" : 3,
            "name" : "Handle_Front",
            "rotation" : [
                1,
                0,
                0,
                -4.371138828673793e-08
            ],
            "translation" : [
                -0.7639999985694885,
                0,
                -0.028999999165534973
            ]
        },
        {
            "children" : [
                2,
                3
            ],
            "mesh" : 4,
            "name" : "Door",
            "translation" : [
                0.4180000126361847,
                1.0499999523162842,
                0.022099999710917473
            ]
        },
        {
            "children" : [
                4
            ],
            "mesh" : 5,
            "name" : "DoorFrame"
        },
        {
            "children" : [
                0,
                1,
                5
            ],
            "name" : "Door_Group",
            "translation" : [
                1,
                0,
                0
            ]
        }
    ],
    "meshes" : [
        {
            "name" : "CTRL_Baseboard",
            "primitives" : [
                {
                    "attributes" : {
                        "POSITION" : 0,
                        "NORMAL" : 1
                    },
                    "indices" : 2
                }
            ]
        },
        {
            "name" : "CTRL_Hole.001",
            "primitives" : [
                {
                    "attributes" : {
                        "POSITION" : 3,
                        "NORMAL" : 4
                    },
                    "indices" : 5
                }
            ]
        },
        {
            "name" : "Mesh",
            "primitives" : [
                {
                    "attributes" : {
                        "POSITION" : 6,
                        "NORMAL" : 7
                    },
                    "indices" : 8
                }
            ]
        },
        {
            "name" : "Mesh",
            "primitives" : [
                {
                    "attributes" : {
                        "POSITION" : 9,
                        "NORMAL" : 10
                    },
                    "indices" : 8
                }
            ]
        },
        {
            "name" : "Door.001",
            "primitives" : [
                {
                    "attributes" : {
                        "POSITION" : 11,
                        "NORMAL" : 12
                    },
                    "indices" : 13
                }
            ]
        },
        {
            "name" : "DoorFrane.001",
            "primitives" : [
                {
                    "attributes" : {
                        "POSITION" : 14,
                        "NORMAL" : 15
                    },
                    "indices" : 16
                }
            ]
        }
    ],
    "accessors" : [
        {
            "bufferView" : 0,
            "componentType" : 5126,
            "count" : 8,
            "max" : [
                0.5,
                0.4000000059604645,
                0
            ],
            "min" : [
                -0.5,
                0,
                -0.4000000059604645
            ],
            "type" : "VEC3"
        },
        {
            "bufferView" : 1,
            "componentType" : 5126,
            "count" : 8,
            "type" : "VEC3"
        },
        {
            "bufferView" : 2,
            "componentType" : 5123,
            "count" : 12,
            "type" : "SCALAR"
        },
        {
            "bufferView" : 3,
            "componentType" : 5126,
            "count" : 24,
            "max" : [
                0.5,
                2.0999999046325684,
                0
            ],
            "min" : [
                -0.5,
                0,
                -0.23999999463558197
            ],
            "type" : "VEC3"
        },
        {
            "bufferView" : 4,
            "componentType" : 5126,
            "count" : 24,
            "type" : "VEC3"
        },
        {
            "bufferView" : 5,
            "componentType" : 5123,
            "count" : 36,
            "type" : "SCALAR"
        },
        {
            "bufferView" : 6,
            "componentType" : 5126,
            "count" : 2258,
            "max" : [
                0.13630202412605286,
                0.04065270721912384,
                0.07240236550569534
            ],
            "min" : [
                -0.04066336154937744,
                -0.040774788707494736,
                0.002755294553935528
            ],
            "type" : "VEC3"
        },
        {
            "bufferView" : 7,
            "componentType" : 5126,
            "count" : 2258,
            "type" : "VEC3"
        },
        {
            "bufferView" : 8,
            "componentType" : 5123,
            "count" : 13248,
            "type" : "SCALAR"
        },
        {
            "bufferView" : 9,
            "componentType" : 5126,
            "count" : 2258,
            "max" : [
                0.13630202412605286,
                0.04065270721912384,
                0.07240236550569534
            ],
            "min" : [
                -0.04066336154937744,
                -0.040774788707494736,
                0.002755294553935528
            ],
            "type" : "VEC3"
        },
        {
            "bufferView" : 10,
            "componentType" : 5126,
            "count" : 2258,
            "type" : "VEC3"
        },
        {
            "bufferView" : 11,
            "componentType" : 5126,
            "count" : 24,
            "max" : [
                0,
                0.9639999270439148,
                0
            ],
            "min" : [
                -0.8360000252723694,
                -1.0460000038146973,
                -0.03399999812245369
            ],
            "type" : "VEC3"
        },
        {
            "bufferView" : 12,
            "componentType" : 5126,
            "count" : 24,
            "type" : "VEC3"
        },
        {
            "bufferView" : 13,
            "componentType" : 5123,
            "count" : 36,
            "type" : "SCALAR"
        },
        {
            "bufferView" : 14,
            "componentType" : 5126,
            "count" : 87,
            "max" : [
                0.5,
                2.0999999046325684,
                0.026666665449738503
            ],
            "min" : [
                -0.5,
                0,
                -0.053333330899477005
            ],
            "type" : "VEC3"
        },
        {
            "bufferView" : 15,
            "componentType" : 5126,
            "count" : 87,
            "type" : "VEC3"
        },
        {
            "bufferView" : 16,
            "componentType" : 5123,
            "count" : 141,
            "type" : "SCALAR"
        }
    ],
    "bufferViews" : [
        {
            "buffer" : 0,
            "byteLength" : 96,
            "byteOffset" : 0
        },
        {
            "buffer" : 0,
            "byteLength" : 96,
            "byteOffset" : 96
        },
        {
            "buffer" : 0,
            "byteLength" : 24,
            "byteOffset" : 192
        },
        {
            "buffer" : 0,
            "byteLength" : 288,
            "byteOffset" : 216
        },
        {
            "buffer" : 0,
            "byteLength" : 288,
            "byteOffset" : 504
        },
        {
            "buffer" : 0,
            "byteLength" : 72,
            "byteOffset" : 792
        },
        {
            "buffer" : 0,
            "byteLength" : 27096,
            "byteOffset" : 864
        },
        {
            "buffer" : 0,
            "byteLength" : 27096,
            "byteOffset" : 27960
        },
        {
            "buffer" : 0,
            "byteLength" : 26496,
            "byteOffset" : 55056
        },
        {
            "buffer" : 0,
            "byteLength" : 27096,
            "byteOffset" : 81552
        },
        {
            "buffer" : 0,
            "byteLength" : 27096,
            "byteOffset" : 108648
        },
        {
            "buffer" : 0,
            "byteLength" : 288,
            "byteOffset" : 135744
        },
        {
            "buffer" : 0,
            "byteLength" : 288,
            "byteOffset" : 136032
        },
        {
            "buffer" : 0,
            "byteLength" : 72,
            "byteOffset" : 136320
        },
        {
            "buffer" : 0,
            "byteLength" : 1044,
            "byteOffset" : 136392
        },
        {
            "buffer" : 0,
            "byteLength" : 1044,
            "byteOffset" : 137436
        },
        {
            "buffer" : 0,
            "byteLength" : 282,
            "byteOffset" : 138480
        }
    ],
    "buffers" : [
        {
            "byteLength" : 138764,
            "uri" : "data:application/octet-stream;base64,"
        }
    ]
}
