{
    "asset" : {
        "generator" : "Khronos glTF Blender I/O v1.8.19",
        "version" : "2.0"
    },
    "scene" : 0,
    "scenes" : [
        {
            "name" : "Scene",
            "nodes" : [
                0,
                1,
                2
            ]
        }
    ],
    "nodes" : [
        {
            "mesh" : 0,
            "name" : "Room"
        },
        {
            "mesh" : 1,
            "name" : "Roof",
            "translation" : [
                0,
                1,
                0
            ]
        },
        {
            "mesh" : 2,
            "name" : "Marquee",
            "rotation" : [
                0.08715575188398361,
                0,
                0,
                0.9961947202682495
            ],
            "translation" : [
                2,
                3.4000000953674316,
                0
            ]
        }
    ],
    "materials" : [
        {
            "doubleSided" : true,
            "name" : "Wall_material",
            "pbrMetallicRoughness" : {}
        },
        {
            "doubleSided" : true,
            "name" : "Marquee",
            "pbrMetallicRoughness" : {
                "baseColorTexture" : {
                    "index" : 0
                },
                "metallicFactor" : 0,
                "roughnessFactor" : 0.5
            }
        }
    ],
    "meshes" : [
        {
            "name" : "temp",
            "primitives" : [
                {
                    "attributes" : {
                        "POSITION" : 0,
                        "NORMAL" : 1,
                        "TEXCOORD_0" : 2
                    },
                    "indices" : 3,
                    "material" : 0
                }
            ]
        },
        {
            "name" : "roof",
            "primitives" : [
                {
                    "attributes" : {
                        "POSITION" : 4,
                        "NORMAL" : 5,
                        "TEXCOORD_0" : 6
                    },
                    "indices" : 7,
                    "material" : 0
                }
            ]
        },
        {
            "name" : "Plane",
            "primitives" : [
                {
                    "attributes" : {
                        "POSITION" : 8,
                        "NORMAL" : 9,
                        "TEXCOORD_0" : 10,
                        "COLOR_0" : 11
                    },
                    "indices" : 12,
                    "material" : 1
                }
            ]
        }
    ],
    "textures" : [
        {
            "sampler" : 0,
            "source" : 0
        }
    ],
    "images" : [
        {
            "bufferView" : 13,
            "mimeType" : "image/png",
            "name" : "marquee_color_4k"
        }
    ],
    "accessors" : [
        {
            "bufferView" : 0,
            "componentType" : 5126,
            "count" : 51,
            "max" : [
                8,
                3.4000000953674316,
                0
            ],
            "min" : [
                0,
                0,
                -9
            ],
            "type" : "VEC3"
        },
        {
            "bufferView" : 1,
            "componentType" : 5126,
            "count" : 51,
            "type" : "VEC3"
        },
        {
            "bufferView" : 2,
            "componentType" : 5126,
            "count" : 51,
            "type" : "VEC2"
        },
        {
            "bufferView" : 3,
            "componentType" : 5123,
            "count" : 147,
            "type" : "SCALAR"
        },
        {
            "bufferView" : 4,
            "componentType" : 5126,
            "count" : 14,
            "max" : [
                8,
                4.400000095367432,
                0
            ],
            "min" : [
                0,
                2.4000000953674316,
                -9
            ],
            "type" : "VEC3"
        },
        {
            "bufferView" : 5,
            "componentType" : 5126,
            "count" : 14,
            "type" : "VEC3"
        },
        {
            "bufferView" : 6,
            "componentType" : 5126,
            "count" : 14,
            "type" : "VEC2"
        },
        {
            "bufferView" : 7,
            "componentType" : 5123,
            "count" : 18,
            "type" : "SCALAR"
        },
        {
            "bufferView" : 8,
            "componentType" : 5126,
            "count" : 831,
            "max" : [
                2,
                0,
                2.0347297191619873
            ],
            "min" : [
                -2,
                -0.19869805872440338,
                0
            ],
            "type" : "VEC3"
        },
        {
            "bufferView" : 9,
            "componentType" : 5126,
            "count" : 831,
            "type" : "VEC3"
        },
        {
            "bufferView" : 10,
            "componentType" : 5126,
            "count" : 831,
            "type" : "VEC2"
        },
        {
            "bufferView" : 11,
            "componentType" : 5123,
            "count" : 831,
            "normalized" : true,
            "type" : "VEC4"
        },
        {
            "bufferView" : 12,
            "componentType" : 5123,
            "count" : 1548,
            "type" : "SCALAR"
        }
    ],
    "bufferViews" : [
        {
            "buffer" : 0,
            "byteLength" : 612,
            "byteOffset" : 0
        },
        {
            "buffer" : 0,
            "byteLength" : 612,
            "byteOffset" : 612
        },
        {
            "buffer" : 0,
            "byteLength" : 408,
            "byteOffset" : 1224
        },
        {
            "buffer" : 0,
            "byteLength" : 294,
            "byteOffset" : 1632
        },
        {
            "buffer" : 0,
            "byteLength" : 168,
            "byteOffset" : 1928
        },
        {
            "buffer" : 0,
            "byteLength" : 168,
            "byteOffset" : 2096
        },
        {
            "buffer" : 0,
            "byteLength" : 112,
            "byteOffset" : 2264
        },
        {
            "buffer" : 0,
            "byteLength" : 36,
            "byteOffset" : 2376
        },
        {
            "buffer" : 0,
            "byteLength" : 9972,
            "byteOffset" : 2412
        },
        {
            "buffer" : 0,
            "byteLength" : 9972,
            "byteOffset" : 12384
        },
        {
            "buffer" : 0,
            "byteLength" : 6648,
            "byteOffset" : 22356
        },
        {
            "buffer" : 0,
            "byteLength" : 6648,
            "byteOffset" : 29004
        },
        {
            "buffer" : 0,
            "byteLength" : 3096,
            "byteOffset" : 35652
        },
        {
            "buffer" : 0,
            "byteLength" : 324304,
            "byteOffset" : 38748
        }
    ],
    "samplers" : [
        {
            "magFilter" : 9729,
            "minFilter" : 9987
        }
    ],
    "buffers" : [
        {
            "byteLength" : 363052,
            "uri" : "data:application/octet-stream;base64,"
        }
    ]
}
